#!OML:ASF F:\VICON\USERDATA\INSTALL\rory3\rory3.ASF
:FULLY-SPECIFIED
:DEGREES
117
root 1.4358136471486267 17.903191602954568 51.23506253912283 -3.7051792159033154 0.6417609293875928 -6.664435253911359
lfemur -16.924974562328657 -0.644080189125561 -12.5842862720974
ltibia 57.96780798885318
lfoot -7.378898975427556 0.6292978874408917
ltoes -14.717631461111681
rfemur -5.250135461598285 2.349061830342572 31.21763185763953
rtibia 30.403466179438393
rfoot -13.228710389398843 -11.22986454335268
rtoes -4.312230183390976
lowerback nan 0.15073707917755785 4.051464153542127
upperback -0.27843310883504907 1.1004941666916102 2.3419358567058657
thorax -6.208898710725053 0.46556508025372034 0.17687119779118743
lowerneck -16.675002376951632 -3.811160003106117 -1.3285473959337715
upperneck 21.19179666997556 -5.311484307168966 1.0602555512134864
head 9.551537487778754 -2.412183307594948 -0.10597879694181819
lclavicle -2.563602202260802e-15 -2.7752119420799896e-15
lhumerus -31.069704035878836 3.1736814516203005 82.45063012438885
lradius 24.055369409127213
lwrist 11.646060922599933
lhand -29.73390728394744 18.35025028286901
lfingers nan
lthumb -2.9663903731329637 48.38986371157406
rclavicle -2.531769036350932e-15 -2.7554863506603783e-15
rhumerus -32.24992939245704 -21.920734883114154 -75.68272299978963
rradius 31.3288580980424
rwrist 2.333278486287743
rhand -18.086765342492065 nan
rfingers nan
rthumb 8.773773287586392 -7.263011166851039
118
root 1.425405836318909 17.8971822943921 51.28820441804511 -3.911895280866379 1.1022283806669846 -6.729764504686807
lfemur -18.481402815119196 -1.0296046532636576 -13.154776914199694
ltibia 54.05753245503765
lfoot -8.808840305592154 0.37933024176517405
ltoes -14.286119352520739
rfemur -4.7684773971134415 2.2397772220965635 31.0660129366215
rtibia 31.35792322811158
rfoot -10.919540419972972 -10.612318419356448
rtoes -3.8670132212698975
lowerback nan 0.3828101704895948 4.288810287203833
upperback -0.311195953775176 1.4212409723008725 2.1968658595669326
thorax -6.147672204283093 0.6230255228785172 -0.3517148431567618
lowerneck -16.428392862181017 -3.8945848182590495 -1.4077328653080987
upperneck 21.320426894460326 -5.475530037236457 1.10324605209657
head 9.585493761239688 -2.4697904451046457 -0.11532866113966508
lclavicle -2.5595657109453515e-15 -2.7749957387024685e-15
lhumerus -31.022148035907374 3.0421625190905655 82.37979258705812
lradius 24.451738342195338
lwrist 11.603119249649623
lhand -29.705022712151138 18.28109168980625
lfingers nan
lthumb -2.9794014326400653 48.27062098308877
rclavicle -2.531104790895384e-15 -2.75667697869442e-15
rhumerus -31.96990357882048 -21.844587451830844 -75.62019469787825
rradius 31.398568245297582
rwrist 2.287779044973109
rhand -18.091354641361114 nan
rfingers nan
rthumb 8.839334295215684 -7.12131895140418
119
root 1.4096676117033087 17.89492155316455 51.31689073221268 -3.8864857732479154 1.4762700734975822 -6.984031344072333
lfemur -19.35652298838062 -1.3821326509320317 -13.485098152968114
ltibia 49.23740033728427
lfoot -8.720138352708215 1.46845509803398
ltoes -14.760129571686107
rfemur -4.854198124505702 2.1842602531237145 31.0705194399551
rtibia 32.88303590852316
rfoot -8.38854309127848 -10.25427387486091
rtoes -2.7448606244028335
lowerback nan 0.5500171065481533 4.605326978116846
upperback -0.35755604623881526 1.6540318997002268 2.04903442002345
thorax -6.0813946156851 0.7412694131217159 -0.7537799437157429
lowerneck -16.22131635891911 -3.9484058741541475 -1.4881261604947515
upperneck 21.48572470043393 -5.586925196218147 1.1638701772432318
head 9.635193863197255 -2.5076012019122924 -0.10829124082141137
lclavicle -2.5549145115052167e-15 -2.7740686590568615e-15
lhumerus -30.8924609084911 2.92647920978354 82.2826733040083
lradius 24.80620755998181
lwrist 11.489254476311558
lhand -29.68354172856522 18.212794401296104
lfingers nan
lthumb -2.950771688344445 48.25197120681783
rclavicle -2.5307136367660286e-15 -2.7577753533220874e-15
rhumerus -31.639071915719967 -21.656901151490366 -75.58839632089365
rradius 31.478846995784536
rwrist 2.2398840821074377
rhand -18.090998327207636 nan
rfingers nan
rthumb 8.790969743400415 -7.21782207607586
120
root 1.3828488579739036 17.88805167124869 50.42838810433797 -4.017148339052055 1.551338198205237 -6.982957415166457
lfemur -19.374864999855404 -1.6027820928709406 -13.895003711845662
ltibia 43.8397376328522
lfoot -8.793566407364889 1.285219459665004
ltoes -15.723065024050506
rfemur -5.31939018816103 2.1132702408299573 30.889804744666424
rtibia 34.94764388303718
rfoot -6.093670397042205 -10.311907026040036
rtoes -0.9225191535398882
lowerback nan 0.6992046319972057 4.6153628382111815
upperback -0.37820856428362176 1.8035375017104223 1.90592005158226
thorax -5.991343521557407 0.8284027113101987 -0.9729055145510801
lowerneck -16.0791071314422 -3.9799937598093393 -1.565299614539262
upperneck 21.624050143662203 -5.656744035268472 1.2563941333445137
head 9.679511717202509 -2.529233637881287 -0.08261466087014388
lclavicle -2.551306771320176e-15 -2.773221622919398e-15
lhumerus -30.680179619901395 2.790199155487396 82.1560837858781
lradius 25.091389186687284
lwrist 11.284991246374403
lhand -29.66365590272665 18.1693009568484
lfingers nan
lthumb -2.974595343221624 48.132926015632194
rclavicle -2.5300901852278447e-15 -2.7583426924563922e-15
rhumerus -31.236129178465305 -21.32160521657524 -75.53676833395538
rradius 31.56875597829097
rwrist 2.199661670086039
rhand -18.081991396915633 nan
rfingers nan
rthumb 8.85426863410521 -7.079466114113192
121
root 1.3539526334035685 17.877681762874012 49.730805910693874 -4.10422267337676 1.6197007479276313 -6.805861303190175
lfemur -18.809470713394823 -1.7737087672006449 -14.408822433631695
ltibia 38.409428425511784
lfoot -7.852125920433165 1.1135778994007537
ltoes -15.688147723083748
rfemur -6.245896939407415 1.895632868904459 30.512466065367946
rtibia 37.58797448022909
rfoot -4.586524801497152 -10.7689577539992
rtoes 1.3637562977153377
lowerback nan 0.7998966126672962 4.503518619799712
upperback -0.39277065965587704 1.895903230701482 1.7878719063039141
thorax -5.919757349707793 0.8789090999647826 -1.1247907554414296
lowerneck -15.9997502489726 -3.993790985862123 -1.630594134733725
upperneck 21.696416063240736 -5.693472953100538 1.3812698728804946
head 9.70381126713319 -2.5381022966221445 -0.04023818803111154
lclavicle -2.5490862301687126e-15 -2.7725581539529336e-15
lhumerus -30.4118299487489 2.599305904605637 82.00793981329036
lradius 25.30895095578176
lwrist 11.04906979160896
lhand -29.63982520118072 18.169915342136033
lfingers nan
lthumb -2.9533761435307366 48.12838147730307
rclavicle -2.5294258621146297e-15 -2.7584181962566344e-15
rhumerus -30.838426918787853 -20.937551789718427 -75.4840460046627
rradius 31.6773961443182
rwrist 2.176501904066455
rhand -18.07291085378911 nan
rfingers nan
rthumb 8.795144873160531 -7.202269648042959
